<?xml version="1.0" encoding="UTF-8"?><svg version="1.1" width="40px" height="40px" viewBox="0 0 40.0 40.0" xmlns="http://www.w3.org/2000/svg" xmlns:xlink="http://www.w3.org/1999/xlink"><defs><clipPath id="i0"><path d="M40,0 L40,40 L0,40 L0,0 L40,0 Z"></path></clipPath><clipPath id="i1"><path d="M27.4,0 C33.4751322,-2.89234053e-15 38.4,4.92486775 38.4,11 L38.4,27.4 C38.4,33.4751322 33.4751322,38.4 27.4,38.4 L11,38.4 C4.92486775,38.4 1.66553297e-15,33.4751322 0,27.4 L0,11 C-2.52034597e-15,4.92486775 4.92486775,-6.6037315e-16 11,0 L27.4,0 Z"></path></clipPath><clipPath id="i2"><path d="M14,0 C21.7319865,0 28,6.2680135 28,14 C28,21.7319865 21.7319865,28 14,28 C6.2680135,28 0,21.7319865 0,14 C0,6.2680135 6.2680135,0 14,0 Z"></path></clipPath><clipPath id="i3"><path d="M1.53153606,0 C2.37738007,0 3.06307212,0.665788377 3.06307212,1.48707996 C3.06307212,2.30837154 2.37738007,2.97415992 1.53153606,2.97415992 C0.685692051,2.97415992 0,2.30837154 0,1.48707996 C0,0.665788377 0.685692051,0 1.53153606,0 Z"></path></clipPath><filter id="i4" x="-20.3687787%" y="-15%" filterUnits="userSpaceOnUse" width="130.553168%" height="130%"><feGaussianBlur stdDeviation="0.5" in="SourceAlpha" result="i5"></feGaussianBlur><feOffset dx="0" dy="1" in="i5" result="i6"></feOffset><feColorMatrix values="0 0 0 0.0 0 0 0 0 0.0 0 0 0 0 0.0 0 0 0 0 0.0988752458479021 0" type="matrix" in="i6"></feColorMatrix></filter><clipPath id="i7"><path d="M9.26923776,0 C12.8553165,0 16.0717874,1.9951816 17.6113516,5.07191724 L17.6378981,5.12496894 L12.9108821,7.17877243 C12.1628025,5.94120504 10.826831,5.18984583 9.3528708,5.18984583 C7.10471597,5.18984583 5.28263833,6.92320212 5.28263833,9.06090406 C5.28263833,11.198606 7.10471597,12.9319623 9.3528708,12.9319623 C10.8679265,12.9319623 12.2353705,12.137892 12.9400296,10.8917032 L17.6378981,12.8750311 L17.6113516,12.9280828 C16.0717874,16.0048184 12.8553165,18 9.26923776,18 C4.14993785,18 0,13.970523 0,9 C0,4.02947705 4.14993785,0 9.26923776,0 Z"></path></clipPath><linearGradient id="i8" x1="8.81894906px" y1="0px" x2="8.81894906px" y2="18px" gradientUnits="userSpaceOnUse"><stop stop-color="#4E5663" offset="0%"></stop><stop stop-color="#2F343B" offset="100%"></stop></linearGradient></defs><g clip-path="url(#i0)"><g transform="translate(0.8000000000000007 0.8000000000000007)"><g clip-path="url(#i1)"><polygon points="0,0 38.4,0 38.4,38.4 0,38.4 0,0" stroke="none" fill="#333841"></polygon></g></g><g transform="translate(6.0 6.0)"><g clip-path="url(#i2)"><polygon points="0,0 28,0 28,28 0,28 0,0" stroke="none" fill="#FFFFFF"></polygon></g><g transform="translate(4.857142857143117 4.857142857142662)"><g transform="translate(14.936927876306981 7.366300506232619)"><g clip-path="url(#i3)"><polygon points="0,0 3.06307212,0 3.06307212,2.97415992 0,2.97415992 0,0" stroke="none" fill="#BB8961"></polygon></g></g><path d="M17.6378981,5.12496894 L12.9108821,7.17877243 C12.1628025,5.94120504 10.826831,5.18984583 9.3528708,5.18984583 C7.10471597,5.18984583 5.28263833,6.92320212 5.28263833,9.06090406 C5.28263833,11.198606 7.10471597,12.9319623 9.3528708,12.9319623 C10.8679265,12.9319623 12.2353705,12.137892 12.9400296,10.8917032 L17.6378981,12.8750311 L17.6113516,12.9280828 C16.0717874,16.0048184 12.8553165,18 9.26923776,18 C4.14993785,18 0,13.970523 0,9 C0,4.02947705 4.14993785,0 9.26923776,0 C12.8553165,0 16.0717874,1.9951816 17.6113516,5.07191724 L17.6378981,5.12496894 Z" stroke="none" fill="#000000" style="mix-blend-mode:multiply" filter="url(#i4)"></path><g clip-path="url(#i7)"><polygon points="0,0 17.6378981,0 17.6378981,18 0,18 0,0" stroke="none" fill="url(#i8)"></polygon></g></g></g></g></svg>